#!OML:ASF F:\VICON\USERDATA\INSTALL\rory3\rory3.ASF
:FULLY-SPECIFIED
:DEGREES
2863
root 14.9339 17.9455 -8.11346 180.003 -145.476 542.396
lowerback 9.64126 0.94601 0.456028
upperback -0.427964 1.32395 0.262113
thorax -5.85668 0.639729 -0.174942
lowerneck -21.6876 -4.41335 -11.9227
upperneck 31.2605 -4.35208 6.45043
head 14.947 -2.44795 3.88593
rclavicle -8.83598e-014 1.59028e-015
rhumerus -36.4915 -9.26887 -80.04
rradius 38.0257
rwrist 0.00135269
rhand -19.16 9.22301
rfingers 7.12502
rthumb 7.15074 -20.6362
lclavicle -8.83598e-014 1.59028e-015
lhumerus -36.3868 9.75536 78.9961
lradius 35.1522
lwrist -4.75937
lhand -18.0581 26.397
lfingers 7.12502
lthumb 8.21426 56.2173
rfemur -5.52938 -15.617 15.9271
rtibia 41.6494
rfoot -19.4224 -27.4762
rtoes 20.0577
lfemur -4.09612 2.05454 -25.2881
ltibia 18.703
lfoot -11.6106 0.838255
ltoes -4.25006
2864
root 14.9417 17.9455 -8.07262 179.891 -146.288 542.584
lowerback 9.68899 0.96344 0.37319
upperback -0.449583 1.33249 0.164947
thorax -5.9059 0.644769 -0.232249
lowerneck -21.6686 -4.37731 -12.0387
upperneck 31.2575 -4.30105 6.5934
head 14.9425 -2.4189 3.97753
rclavicle 5.1684e-015 7.95139e-015
rhumerus -36.4173 -9.23956 -80.2602
rradius 38.1533
rwrist 0.83101
rhand -19.0933 9.41563
rfingers 7.12502
rthumb 7.21509 -20.4414
lclavicle 5.1684e-015 7.95139e-015
lhumerus -36.4772 9.46737 78.9295
lradius 35.2683
lwrist -4.42109
lhand -18.6557 25.8089
lfingers 7.12502
lthumb 7.63749 55.651
rfemur -5.82317 -15.378 15.6567
rtibia 42.6479
rfoot -19.0359 -27.4048
rtoes 22.4436
lfemur -3.74471 1.52572 -25.5706
ltibia 18.2076
lfoot -11.4506 0.547942
ltoes -4.33619
2865
root 14.9481 17.9462 -8.0337 179.798 -147.11 542.768
lowerback 9.72602 0.973326 0.251477
upperback -0.406872 1.32639 0.0801783
thorax -5.88259 0.644237 -0.251675
lowerneck -21.8267 -4.35758 -11.9786
upperneck 31.2509 -4.2272 6.48831
head 14.9611 -2.39001 3.93667
rclavicle -9.57148e-014 1.07344e-014
rhumerus -36.1951 -9.20191 -80.5426
rradius 38.3579
rwrist 1.53074
rhand -18.9363 9.487
rfingers 7.12502
rthumb 7.36666 -20.3648
lclavicle -9.57148e-014 1.07344e-014
lhumerus -36.3887 9.57285 78.7682
lradius 35.2379
lwrist -4.63981
lhand -18.3368 26.0144
lfingers 7.12502
lthumb 7.94527 55.845
rfemur -6.26309 -15.0098 15.4992
rtibia 43.6591
rfoot -18.2855 -27.8679
rtoes 24.1863
lfemur -3.40765 1.35323 -25.8041
ltibia 17.6645
lfoot -11.184 -0.17375
ltoes -4.67518
2866
root 14.9508 17.9469 -7.99885 179.768 -147.873 542.866
lowerback 9.81143 1.00255 0.11159
upperback -0.359904 1.34501 0.0150231
thorax -5.88295 0.656522 -0.244885
lowerneck -22.15 -4.37952 -11.7594
upperneck 31.3113 -4.22182 6.27944
head 15.0481 -2.38482 3.81261
rclavicle 4.26145e-014 -5.56597e-015
rhumerus -35.9024 -9.29395 -80.8072
rradius 38.4536
rwrist 2.11248
rhand -18.7412 10.0908
rfingers 7.12502
rthumb 7.55494 -19.7543
lclavicle 4.26145e-014 -5.56597e-015
lhumerus -36.191 9.53852 78.6194
lradius 35.0305
lwrist -4.72884
lhand -18.7339 25.9291
lfingers 7.12502
lthumb 7.56204 55.774
rfemur -6.87188 -14.5254 15.5269
rtibia 44.6812
rfoot -16.0327 -28.752
rtoes 23.2149
lfemur -3.09015 1.52982 -25.8983
ltibia 17.0716
lfoot -10.8462 -1.28592
ltoes -3.86892
2867
root 14.9504 17.949 -7.95745 179.625 -148.451 543.097
lowerback 9.91888 1.1024 -0.130838
upperback -0.388943 1.44466 -0.068297
thorax -5.97781 0.711289 -0.212944
lowerneck -22.2836 -4.36227 -11.6659
upperneck 31.4219 -4.17469 6.16855
head 15.1177 -2.36865 3.76219
rclavicle -4.84538e-015 -1.59028e-015
rhumerus -35.8459 -9.39139 -80.9315
rradius 38.4849
rwrist 2.48762
rhand -18.5235 10.8538
rfingers 7.12502
rthumb 7.76506 -18.9837
lclavicle -4.84538e-015 -1.59028e-015
lhumerus -36.2308 9.58327 78.4597
lradius 34.7893
lwrist -4.8813
lhand -19.2462 25.6787
lfingers 7.12502
lthumb 7.06747 55.5407
rfemur -7.39289 -13.9399 15.3463
rtibia 45.7315
rfoot -12.8313 -28.9358
rtoes 20.3871
lfemur -2.69126 1.52231 -26.1655
ltibia 16.5176
lfoot -10.6934 -1.96137
ltoes -1.76247
2868
root 14.9512 17.9501 -7.91749 179.473 -149.049 543.352
lowerback 9.97737 1.17075 -0.356318
upperback -0.41664 1.50402 -0.1481
thorax -6.04376 0.74605 -0.180139
lowerneck -22.2222 -4.29904 -11.7206
upperneck 31.4721 -4.06063 6.15753
head 15.115 -2.32976 3.79159
rclavicle -4.58696e-014 1.98785e-015
rhumerus -35.8306 -9.54335 -81.02
rradius 38.5611
rwrist 2.7639
rhand -18.7034 10.2651
rfingers 7.12502
rthumb 7.5914 -19.5787
lclavicle -4.58696e-014 1.98785e-015
lhumerus -36.3798 9.78972 78.2504
lradius 34.6928
lwrist -5.11785
lhand -19.3759 26.3
lfingers 7.12502
lthumb 6.94227 56.1662
rfemur -7.82625 -13.3455 15.0894
rtibia 46.772
rfoot -10.9576 -28.1509
rtoes 20.5365
lfemur -2.33155 1.33319 -26.4797
ltibia 16.0634
lfoot -10.6695 -2.47115
ltoes -0.159849
2869
root 14.9526 17.9507 -7.88343 179.382 -149.847 543.499
lowerback 9.9653 1.14624 -0.434598
upperback -0.332404 1.45492 -0.265064
thorax -5.94694 0.72244 -0.249551
lowerneck -22.1894 -4.22141 -11.6284
upperneck 31.3684 -3.96682 6.13189
head 15.0443 -2.27802 3.78024
rclavicle -9.7156e-015 -8.34896e-015
rhumerus -35.6127 -9.68257 -81.2908
rradius 38.6778
rwrist 2.86167
rhand -19.0448 9.37654
rfingers 7.12502
rthumb 7.26195 -20.4788
lclavicle -9.7156e-015 -8.34896e-015
lhumerus -36.2087 10.1137 77.8578
lradius 34.3054
lwrist -5.9607
lhand -19.5477 26.2931
lfingers 7.12502
lthumb 6.77643 56.1647
rfemur -8.25307 -12.8766 14.9675
rtibia 47.7932
rfoot -10.1437 -26.8248
rtoes 21.4481
lfemur -2.02427 1.0956 -26.6638
ltibia 15.6536
lfoot -10.5604 -3.18041
ltoes 0.445333
2870
root 14.9518 17.9481 -7.84343 179.313 -150.568 543.534
lowerback 9.91948 1.13986 -0.422314
upperback -0.226913 1.44406 -0.333265
thorax -5.80785 0.715719 -0.323538
lowerneck -22.2878 -4.18008 -11.5856
upperneck 31.4277 -3.89438 6.09941
head 15.0828 -2.24543 3.7756
rclavicle -1.92821e-014 -3.57812e-015
rhumerus -35.4191 -9.61018 -81.5571
rradius 38.8017
rwrist 2.62354
rhand -18.7468 9.13109
rfingers 7.12502
rthumb 7.54956 -20.7142
lclavicle -1.92821e-014 -3.57812e-015
lhumerus -36.0243 10.6634 77.4098
lradius 33.8657
lwrist -6.78777
lhand -19.1775 26.0103
lfingers 7.12502
lthumb 7.13384 55.87
rfemur -8.65082 -12.3441 14.9499
rtibia 48.7655
rfoot -9.54659 -25.349
rtoes 20.6888
lfemur -1.70985 0.904353 -26.7486
ltibia 15.3429
lfoot -10.5114 -3.68811
ltoes 0.572001
2871
root 14.9485 17.9432 -7.80142 179.256 -151.242 543.537
lowerback 9.92209 1.17889 -0.45194
upperback -0.182007 1.49144 -0.352345
thorax -5.76229 0.739595 -0.333178
lowerneck -22.389 -4.17165 -11.6574
upperneck 31.6283 -3.85607 6.13522
head 15.1972 -2.23617 3.81827
rclavicle -1.71452e-014 -8.74653e-015
rhumerus -35.2907 -9.8134 -81.5894
rradius 38.769
rwrist 2.85709
rhand -18.167 9.48918
rfingers 7.12502
rthumb 8.10911 -20.3352
lclavicle -1.71452e-014 -8.74653e-015
lhumerus -36.0276 11.1482 77.094
lradius 33.7403
lwrist -6.66075
lhand -17.969 27.1708
lfingers 7.12502
lthumb 8.30022 56.9878
rfemur -9.05357 -11.7274 14.9744
rtibia 49.6976
rfoot -9.31508 -23.7019
rtoes 18.847
lfemur -1.41287 0.77807 -26.8029
ltibia 15.1244
lfoot -10.5476 -4.13645
ltoes 0.275111
2872
root 14.9459 17.9369 -7.76275 179.146 -151.964 543.675
lowerback 9.98301 1.22354 -0.620009
upperback -0.157813 1.52862 -0.386903
thorax -5.77471 0.762106 -0.281312
lowerneck -22.3837 -4.16344 -11.6776
upperneck 31.7287 -3.81385 6.07499
head 15.2375 -2.23102 3.80802
rclavicle -7.8023e-014 -8.34896e-015
rhumerus -35.1917 -10.0964 -81.5529
rradius 38.729
rwrist 3.14349
rhand -18.0125 9.93576
rfingers 7.12502
rthumb 8.25827 -19.8828
lclavicle -7.8023e-014 -8.34896e-015
lhumerus -36.0387 11.2799 76.9628
lradius 33.657
lwrist -6.20217
lhand -17.0507 28.9259
lfingers 7.12502
lthumb 9.1864 58.7058
rfemur -9.46395 -11.0596 14.8798
rtibia 50.5901
rfoot -9.49788 -21.5577
rtoes 16.6616
lfemur -1.17284 0.688611 -26.98
ltibia 14.9948
lfoot -10.5589 -4.70605
ltoes 0.341123
2873
root 14.944 17.9311 -7.72233 179.011 -152.635 543.841
lowerback 10.0494 1.25923 -0.749854
upperback -0.148752 1.55627 -0.451824
thorax -5.80439 0.778383 -0.281695
lowerneck -22.2384 -4.14029 -11.7383
upperneck 31.775 -3.76896 6.06381
head 15.2229 -2.22338 3.82452
rclavicle -1.03244e-013 1.15295e-014
rhumerus -35.2275 -10.1221 -81.6451
rradius 38.814
rwrist 2.80824
rhand -18.1447 10.0298
rfingers 7.12502
rthumb 8.13072 -19.7937
lclavicle -1.03244e-013 1.15295e-014
lhumerus -36.046 11.3984 76.7849
lradius 33.3787
lwrist -6.23684
lhand -16.9555 29.534
lfingers 7.12502
lthumb 9.27828 59.3098
rfemur -9.87866 -10.3375 14.7566
rtibia 51.4431
rfoot -9.93101 -19.1281
rtoes 15.1694
lfemur -0.935916 0.544997 -27.1955
ltibia 14.9211
lfoot -10.572 -5.21192
ltoes 1.03251
2874
root 14.9419 17.9236 -7.68039 178.939 -153.318 543.952
lowerback 10.0749 1.27028 -0.823397
upperback -0.139251 1.55842 -0.51237
thorax -5.8091 0.780627 -0.304406
lowerneck -22.1747 -4.12197 -11.7252
upperneck 31.852 -3.73988 6.02195
head 15.2398 -2.21744 3.81301
rclavicle 3.77691e-014 6.36111e-015
rhumerus -35.2342 -10.1627 -81.7643
rradius 38.8895
rwrist 2.6362
rhand -18.1277 10.2348
rfingers 7.12502
rthumb 8.14713 -19.5882
lclavicle 3.77691e-014 6.36111e-015
lhumerus -35.9872 11.5237 76.5933
lradius 33.0167
lwrist -6.38721
lhand -17.2276 29.1906
lfingers 7.12502
lthumb 9.01568 58.9779
rfemur -10.3419 -9.51034 14.7167
rtibia 52.2365
rfoot -10.5324 -16.9108
rtoes 14.5078
lfemur -0.780276 0.400207 -27.3572
ltibia 14.9063
lfoot -10.634 -5.82834
ltoes 2.02769
